<svg xmlns="http://www.w3.org/2000/svg" xmlns:xlink="http://www.w3.org/1999/xlink" width="60px" height="60px" viewBox="0 0 60 60">
  <g id="2953c8c7-f8a1-47e5-a441-d0b8bb24fa4a">
<g style="">
		<g id="b30e7a0b-562d-47d3-8c56-cfebd481a7f6">
<path style="stroke: rgb(193,193,193); stroke-width: 0; stroke-dasharray: none; stroke-linecap: butt; stroke-dashoffset: 0; stroke-linejoin: miter; stroke-miterlimit: 4; fill: rgb(0,0,0); fill-rule: nonzero; opacity: 1;" transform="matrix(0.079594 0 0 0.079594 30.000096 30.000094) matrix(1 0 0 1 0 0)  translate(-512.269224, -509.233687)" d="M 214.32 850.50 C 194.32 846.15 175.13 829.96 166.21 809.92 C 160.06 796.08 160.50 819.33 160.50 511.00 C 160.50 193.86 159.76 224.11 167.96 207.50 C 177.44 188.32 194.46 174.17 215.09 168.32 C 221.22 166.58 234.21 166.50 512.50 166.50 L 803.50 166.50 L 811.50 168.81 C 836.23 175.94 855.71 195.89 862.02 220.57 C 863.94 228.07 863.98 233.72 864.03 510.36 C 864.09 815.10 864.43 794.76 859.05 809.15 C 853.97 822.70 839.25 838.44 825.51 845.00 C 809.57 852.61 836.59 852.01 511.80 851.92 C 271.85 851.86 219.41 851.60 214.32 850.50 M 778.00 836.75 C 806.83 836.51 807.63 836.44 813.00 834.06 C 830.90 826.13 842.70 812.52 847.73 794.00 C 849.40 787.86 849.50 772.10 849.50 508.50 L 849.50 229.50 L 846.76 221.42 C 840.69 203.51 828.14 190.50 810.42 183.75 L 804.50 181.50 L 517.50 181.22 C 316.81 181.03 228.40 181.27 223.51 182.02 C 209.24 184.21 194.30 194.03 185.51 207.01 C 179.67 215.63 177.29 222.21 175.92 233.50 C 175.30 238.56 175.04 342.78 175.22 517.00 L 175.50 792.50 L 177.64 798.09 C 180.73 806.16 182.74 809.78 187.69 816.23 C 195.75 826.74 210.39 835.14 223.44 836.75 C 228.72 837.41 699.58 837.40 778.00 836.75 M 211.41 803.58 C 209.71 802.84 206.66 800.52 204.64 798.44 C 197.35 790.94 197.87 815.26 198.34 506.36 C 198.66 296.45 199.05 227.77 199.93 225.50 C 202.09 220.01 206.17 215.10 211.34 211.78 L 216.45 208.50 L 510.64 208.50 L 804.83 208.50 L 809.16 211.51 C 812.00 213.48 814.45 216.38 816.25 219.94 L 819.00 225.36 L 818.53 508.93 C 818.27 664.89 818.05 793.05 818.03 793.72 C 817.98 795.55 812.08 801.91 808.90 803.55 C 804.85 805.65 216.23 805.67 211.41 803.58 M 808.63 795.57 L 812.00 792.20 L 812.00 508.47 L 812.00 224.74 L 809.85 221.25 C 808.59 219.23 805.97 216.98 803.60 215.90 C 799.63 214.10 790.08 214.04 510.22 214.02 C 269.48 214.00 220.39 214.23 217.70 215.35 C 213.80 216.98 208.55 222.75 206.50 227.66 C 205.18 230.81 205.00 264.52 205.00 508.81 L 205.00 786.37 L 207.14 790.78 C 208.31 793.21 210.67 796.05 212.39 797.09 C 215.42 798.94 222.61 798.99 510.38 798.97 L 805.25 798.95 L 808.63 795.57 M 221.25 508.25 L 221.50 238.50 L 511.75 238.25 L 802.00 238.00 L 802.00 241.00 L 802.00 244.00 L 775.50 244.00 L 749.00 244.00 L 748.91 262.25 C 748.87 272.29 748.68 281.96 748.49 283.75 C 748.31 285.54 748.33 287.00 748.54 287.00 C 749.37 287.00 762.71 279.50 766.81 276.73 C 771.85 273.33 775.61 273.60 776.57 277.42 C 777.04 279.30 768.90 336.75 766.39 349.26 C 765.84 352.01 763.58 355.00 762.06 355.00 C 761.05 355.00 751.63 347.72 746.93 343.30 C 743.55 340.13 743.28 340.04 741.81 341.72 C 737.59 346.58 716.90 376.48 714.12 381.75 L 712.93 384.00 L 729.46 384.00 L 746.00 384.00 L 746.11 373.25 C 746.16 367.34 746.52 358.45 746.90 353.50 C 748.32 335.02 749.10 349.97 748.80 389.78 L 748.50 430.00 L 774.25 430.00 C 797.58 430.00 803.20 430.56 798.42 432.39 C 797.55 432.73 786.09 433.00 772.95 433.00 L 749.07 433.00 L 748.78 458.51 C 748.63 472.54 748.65 484.46 748.83 485.01 C 749.04 485.63 758.65 486.00 774.58 486.00 C 796.51 486.00 800.00 486.21 800.00 487.50 C 800.00 488.79 796.47 489.00 774.25 489.00 L 748.50 489.00 L 748.50 506.87 L 748.50 524.74 L 757.40 525.37 C 762.30 525.72 774.34 526.00 784.15 526.00 C 795.38 526.00 802.00 526.37 802.00 527.00 C 802.00 527.64 792.50 528.00 775.50 528.00 L 749.00 528.00 L 749.00 552.00 L 749.00 576.00 L 773.58 576.00 C 792.81 576.00 798.08 576.27 797.75 577.25 C 797.44 578.19 791.44 578.57 773.28 578.77 L 749.23 579.04 L 748.53 607.27 C 748.14 622.80 747.98 638.42 748.16 642.00 L 748.50 648.50 L 774.48 648.70 C 791.28 648.83 800.59 649.27 800.81 649.93 C 801.04 650.62 792.44 651.06 775.06 651.23 L 748.96 651.50 L 748.73 681.00 L 748.50 710.50 L 775.00 711.00 C 810.16 711.66 810.02 713.33 774.75 714.00 L 748.50 714.50 L 748.44 717.25 C 748.40 718.76 748.29 731.48 748.19 745.50 C 748.07 761.71 747.64 771.00 747.00 771.00 C 746.36 771.00 746.00 760.83 746.00 742.50 L 746.00 714.00 L 719.00 714.00 L 692.00 714.00 L 692.00 742.00 C 692.00 767.39 691.47 773.27 689.61 768.42 C 689.27 767.55 689.00 754.95 689.00 740.42 L 689.00 714.00 L 666.56 714.00 L 644.12 714.00 L 643.54 718.25 C 643.22 720.59 643.04 723.62 643.16 725.00 C 643.82 733.01 642.87 770.00 642.00 770.00 C 641.36 770.00 641.00 760.00 641.00 742.00 L 641.00 714.00 L 611.50 714.00 L 582.00 714.00 L 582.00 742.50 C 582.00 760.83 581.64 771.00 581.00 771.00 C 580.36 771.00 580.00 760.83 580.00 742.50 L 580.00 714.00 L 553.53 714.00 L 527.06 714.00 L 526.78 743.00 L 526.50 771.99 L 664.50 772.25 L 802.50 772.50 L 802.82 775.25 L 803.13 778.00 L 512.06 778.00 L 221.00 778.00 L 221.25 508.25 M 283.22 743.00 L 282.94 714.00 L 254.97 714.00 L 227.00 714.00 L 227.00 743.00 L 227.00 772.00 L 255.25 772.00 L 283.50 772.00 L 283.22 743.00 M 524.61 770.42 C 524.27 769.55 524.00 756.50 524.00 741.42 L 524.00 714.00 L 492.00 714.00 L 460.00 714.00 L 460.00 742.58 C 460.00 765.01 459.73 771.08 458.75 770.75 C 457.80 770.43 457.45 764.00 457.27 743.92 C 457.15 729.39 457.04 716.71 457.02 715.75 C 457.00 714.14 455.30 714.00 435.52 714.00 L 414.03 714.00 L 413.77 742.17 C 413.56 763.62 413.20 770.43 412.25 770.75 C 411.27 771.08 411.00 765.01 411.00 742.58 L 411.00 714.00 L 378.39 714.00 L 345.79 714.00 L 346.02 740.75 C 346.29 771.68 346.31 771.00 345.00 771.00 C 344.36 771.00 344.00 760.83 344.00 742.50 L 344.00 714.00 L 315.03 714.00 L 286.06 714.00 L 285.78 743.00 L 285.50 772.00 L 405.36 772.00 C 514.24 772.00 525.16 771.86 524.61 770.42 M 283.00 685.93 L 283.00 660.86 L 280.33 656.30 C 277.83 652.03 277.57 651.86 276.27 653.62 C 275.51 654.65 273.77 657.70 272.41 660.40 C 268.62 667.90 248.61 702.00 248.02 701.97 C 247.74 701.95 245.51 700.22 243.08 698.12 L 238.65 694.29 L 240.71 691.40 C 244.92 685.45 264.00 652.67 264.00 651.38 C 264.00 651.17 255.68 651.00 245.50 651.00 L 227.00 651.00 L 227.00 681.00 L 227.00 711.00 L 255.00 711.00 L 283.00 711.00 L 283.00 685.93 M 343.76 681.25 L 343.50 651.50 L 331.01 651.50 L 318.52 651.50 L 314.86 660.50 C 305.99 682.26 306.06 682.14 302.65 681.80 C 300.08 681.55 298.49 680.05 293.04 672.77 C 286.96 664.66 283.95 661.83 285.39 665.58 C 285.73 666.45 286.00 677.03 286.00 689.08 L 286.00 711.00 L 315.01 711.00 L 344.03 711.00 L 343.76 681.25 M 410.76 681.25 L 410.50 651.50 L 378.75 651.24 C 353.72 651.03 346.98 651.24 346.92 652.24 C 346.88 652.93 346.70 655.08 346.51 657.00 C 346.33 658.92 346.43 671.86 346.73 685.75 L 347.29 711.00 L 379.16 711.00 L 411.03 711.00 L 410.76 681.25 M 457.19 691.25 C 457.29 680.39 457.34 667.00 457.30 661.50 L 457.22 651.50 L 435.61 651.23 L 414.00 650.96 L 414.00 680.98 L 414.00 711.00 L 435.50 711.00 L 457.00 711.00 L 457.19 691.25 M 523.76 681.25 L 523.50 651.50 L 491.75 651.24 L 460.00 650.97 L 460.00 680.99 L 460.00 711.00 L 492.01 711.00 L 524.03 711.00 L 523.76 681.25 M 579.76 681.25 L 579.50 651.50 L 553.50 651.50 L 527.50 651.50 L 527.24 681.25 L 526.97 711.00 L 553.50 711.00 L 580.03 711.00 L 579.76 681.25 M 640.76 681.25 L 640.50 651.50 L 611.50 651.50 L 582.50 651.50 L 582.20 681.25 L 581.89 711.00 L 611.46 711.00 L 641.03 711.00 L 640.76 681.25 M 688.76 681.25 L 688.50 651.50 L 666.24 651.50 L 643.98 651.50 L 643.36 681.25 L 642.75 711.00 L 665.89 711.00 L 689.03 711.00 L 688.76 681.25 M 746.00 680.97 L 746.00 650.94 L 720.41 651.03 C 706.34 651.09 694.19 651.37 693.41 651.67 C 692.24 652.12 692.00 657.20 692.00 681.61 L 692.00 711.00 L 719.00 711.00 L 746.00 711.00 L 746.00 680.97 M 303.61 659.25 C 304.52 656.09 305.47 652.97 305.71 652.33 C 306.02 651.52 303.85 651.06 298.66 650.83 C 293.47 650.60 291.38 650.83 291.84 651.58 C 292.83 653.21 301.47 664.88 301.72 664.94 C 301.84 664.97 302.69 662.41 303.61 659.25 M 269.07 642.87 C 270.93 639.57 273.00 636.42 273.67 635.86 C 275.77 634.12 278.63 635.85 283.51 641.79 L 288.21 647.50 L 297.35 648.03 C 307.84 648.64 308.01 648.54 310.61 640.60 C 311.52 637.80 314.29 630.33 316.75 624.00 C 319.21 617.67 322.51 609.01 324.09 604.75 L 326.95 597.00 L 306.47 597.00 L 286.00 597.00 L 286.00 619.50 C 286.00 631.88 285.61 642.00 285.14 642.00 C 283.67 642.00 283.00 633.49 283.00 614.86 L 283.00 597.00 L 255.00 597.00 L 227.00 597.00 L 227.00 622.97 L 227.00 648.95 L 246.35 648.91 L 265.70 648.86 L 269.07 642.87 M 343.93 617.31 C 343.79 588.60 343.64 585.95 342.32 589.06 C 338.92 597.11 321.10 643.74 320.47 646.25 L 319.78 649.00 L 331.93 649.00 L 344.08 649.00 L 343.93 617.31 M 411.21 625.56 C 411.49 602.64 411.45 602.06 409.30 599.56 L 407.10 597.00 L 376.55 597.00 L 346.00 597.00 L 346.00 622.33 C 346.00 636.27 346.30 647.97 346.67 648.33 C 347.03 648.70 361.64 649.00 379.13 649.00 L 410.93 649.00 L 411.21 625.56 M 457.11 634.25 C 457.16 626.14 457.12 618.19 457.01 616.59 C 456.72 612.31 444.54 596.46 441.67 596.63 C 440.48 596.70 437.42 596.82 434.87 596.88 C 430.50 596.99 430.01 597.30 426.07 602.41 C 423.77 605.39 421.25 608.07 420.47 608.37 C 419.69 608.67 417.60 607.70 415.83 606.21 C 413.35 604.13 412.76 603.92 413.30 605.33 C 413.69 606.34 414.00 616.58 414.00 628.08 L 414.00 649.00 L 435.50 649.00 L 457.00 649.00 L 457.11 634.25 M 524.00 614.00 L 524.00 579.00 L 509.16 579.00 L 494.32 579.00 L 488.74 590.75 C 485.66 597.21 481.05 607.23 478.48 613.00 C 471.34 629.05 469.42 630.19 463.33 622.03 C 461.28 619.29 459.59 617.15 459.56 617.28 C 459.53 617.40 459.63 624.59 459.80 633.25 L 460.10 649.00 L 492.05 649.00 L 524.00 649.00 L 524.00 614.00 M 580.00 614.00 L 580.00 579.00 L 553.50 579.00 L 527.00 579.00 L 527.00 614.00 L 527.00 649.00 L 553.50 649.00 L 580.00 649.00 L 580.00 614.00 M 641.00 614.00 L 641.00 579.00 L 612.00 579.00 L 583.00 579.00 L 583.00 614.00 L 583.00 649.00 L 612.00 649.00 L 641.00 649.00 L 641.00 614.00 M 689.00 614.00 L 689.00 579.00 L 666.58 579.00 L 644.16 579.00 L 643.81 613.25 C 643.61 632.09 643.60 647.84 643.78 648.25 C 643.97 648.66 654.22 649.00 666.56 649.00 L 689.00 649.00 L 689.00 614.00 M 746.00 614.00 L 746.00 579.00 L 719.00 579.00 L 692.00 579.00 L 692.00 614.00 L 692.00 649.00 L 719.00 649.00 L 746.00 649.00 L 746.00 614.00 M 474.87 594.55 C 478.24 587.15 481.00 580.62 481.00 580.05 C 481.00 579.38 477.14 579.00 470.50 579.00 L 460.00 579.00 L 460.00 587.12 C 460.00 594.23 459.81 595.09 458.50 594.00 C 457.43 593.11 457.00 590.77 457.00 585.88 L 457.00 579.00 L 452.00 579.00 C 449.25 579.00 447.00 579.34 447.00 579.75 C 447.00 580.16 449.45 583.65 452.44 587.50 C 455.44 591.35 460.05 597.54 462.69 601.24 C 465.34 604.95 467.78 607.99 468.12 607.99 C 468.46 608.00 471.50 601.95 474.87 594.55 M 335.23 575.71 C 339.39 565.15 343.45 554.48 344.26 552.00 C 345.06 549.52 347.20 543.55 349.00 538.73 C 350.81 533.90 352.02 529.68 351.69 529.36 C 351.36 529.03 349.95 529.05 348.55 529.40 C 346.41 529.93 345.98 530.64 345.90 533.77 C 345.85 535.82 345.44 538.62 345.00 540.00 C 344.40 541.86 344.17 540.89 344.10 536.25 L 344.00 530.00 L 315.00 530.00 L 286.00 530.00 L 286.00 561.98 L 286.00 593.95 L 303.25 594.23 C 312.74 594.38 322.11 594.60 324.08 594.71 L 327.66 594.93 L 335.23 575.71 M 404.00 594.05 C 404.00 593.53 401.84 590.49 399.19 587.30 C 396.55 584.11 392.42 578.70 390.01 575.28 C 385.10 568.29 384.95 568.29 380.10 575.83 C 378.44 578.40 376.18 581.06 375.07 581.74 C 373.32 582.82 372.59 582.58 369.56 579.92 L 366.07 576.85 L 371.54 568.68 C 374.55 564.18 376.57 560.36 376.03 560.18 C 375.49 560.00 371.82 556.17 367.86 551.68 C 363.91 547.18 360.35 543.37 359.95 543.20 C 359.55 543.04 358.46 545.07 357.52 547.70 C 349.52 570.29 346.13 581.46 345.54 587.23 L 344.84 593.96 L 369.67 594.25 C 383.33 594.41 396.64 594.64 399.25 594.77 C 401.86 594.90 404.00 594.57 404.00 594.05 M 442.00 594.40 C 442.00 593.29 438.57 588.00 437.85 588.00 C 437.09 588.00 433.00 593.40 433.00 594.40 C 433.00 594.73 435.02 595.00 437.50 595.00 C 439.98 595.00 442.00 594.73 442.00 594.40 M 283.00 562.05 L 283.00 530.09 L 255.75 529.80 C 240.76 529.63 228.16 529.64 227.75 529.81 C 227.34 529.98 227.00 544.49 227.00 562.06 L 227.00 594.00 L 255.00 594.00 L 283.00 594.00 L 283.00 562.05 M 424.75 585.20 L 429.19 579.00 L 420.84 579.02 C 409.29 579.04 408.83 579.54 414.14 586.30 C 416.54 589.35 418.91 591.74 419.41 591.62 C 419.90 591.50 422.31 588.61 424.75 585.20 M 409.77 553.17 L 410.04 529.00 L 387.52 529.00 C 375.13 529.00 365.00 529.34 365.01 529.75 C 365.02 530.16 368.88 535.37 373.60 541.32 C 378.99 548.13 382.68 551.95 383.53 551.63 C 384.92 551.09 386.81 553.06 395.50 564.11 C 403.19 573.89 407.19 578.10 408.40 577.70 C 409.15 577.45 409.58 569.67 409.77 553.17 M 454.75 577.01 L 457.00 577.00 L 457.00 553.00 L 457.00 529.00 L 435.03 529.00 L 413.07 529.00 L 412.78 553.00 L 412.50 577.00 L 421.80 577.00 C 430.76 577.00 431.23 576.89 434.30 574.00 C 436.06 572.36 438.00 571.01 438.61 571.00 C 439.99 571.00 445.00 575.91 445.00 577.27 C 445.00 577.86 446.52 578.01 448.75 577.64 C 450.81 577.30 453.51 577.02 454.75 577.01 M 486.17 570.25 C 487.84 566.54 491.92 557.65 495.23 550.50 C 498.54 543.35 502.08 535.59 503.09 533.25 L 504.93 529.00 L 482.46 529.00 L 460.00 529.00 L 460.00 553.00 L 460.00 577.00 L 471.56 577.00 L 483.13 577.00 L 486.17 570.25 M 523.77 558.84 L 524.05 541.18 L 518.96 539.49 C 516.16 538.56 513.68 537.98 513.45 538.21 C 512.92 538.74 496.00 575.95 496.00 576.59 C 496.00 576.84 502.19 576.93 509.75 576.78 L 523.50 576.50 L 523.77 558.84 M 580.00 552.60 L 580.00 529.21 L 567.25 528.80 C 560.24 528.57 554.05 528.57 553.50 528.78 C 552.95 529.00 549.39 532.78 545.58 537.18 C 538.14 545.78 538.26 545.74 530.25 543.18 L 527.00 542.14 L 527.00 559.07 L 527.00 576.00 L 553.50 576.00 L 580.00 576.00 L 580.00 552.60 M 641.00 552.53 L 641.00 529.06 L 612.00 528.78 L 583.00 528.50 L 583.00 552.25 L 583.00 576.00 L 612.00 576.00 L 641.00 576.00 L 641.00 552.53 M 689.00 552.50 L 689.00 529.00 L 668.25 528.88 C 649.52 528.77 644.81 528.87 644.35 529.35 C 644.27 529.43 643.88 539.96 643.48 552.75 L 642.75 576.00 L 665.87 576.00 L 689.00 576.00 L 689.00 552.50 M 746.00 552.00 L 746.00 528.00 L 719.00 528.00 L 692.00 528.00 L 692.00 552.00 L 692.00 576.00 L 719.00 576.00 L 746.00 576.00 L 746.00 552.00 M 536.62 530.25 C 537.63 528.64 537.19 528.53 531.11 528.88 L 524.50 529.25 L 528.00 530.55 C 532.90 532.37 535.34 532.28 536.62 530.25 M 524.00 509.00 L 524.00 489.00 L 492.00 489.00 L 460.00 489.00 L 460.00 508.00 L 460.00 527.00 L 482.94 527.00 C 497.16 527.00 506.12 526.62 506.50 526.00 C 507.42 524.51 511.86 524.92 517.50 527.00 C 520.25 528.01 522.84 528.88 523.25 528.92 C 523.66 528.97 524.00 520.00 524.00 509.00 M 283.00 508.00 L 283.00 489.00 L 256.00 489.00 C 241.15 489.00 228.66 489.00 228.25 489.00 C 227.84 489.00 227.38 497.55 227.23 508.00 L 226.96 527.00 L 254.98 527.00 L 283.00 527.00 L 283.00 508.00 M 344.00 508.00 L 344.00 489.00 L 315.00 489.00 L 286.00 489.00 L 286.00 508.00 L 286.00 527.00 L 315.00 527.00 L 344.00 527.00 L 344.00 508.00 M 354.50 526.00 C 355.26 524.77 360.68 524.67 361.42 525.87 C 361.71 526.34 372.63 526.68 385.69 526.62 L 409.42 526.50 L 410.02 523.50 C 410.35 521.85 410.43 513.41 410.19 504.75 L 409.76 489.00 L 378.13 489.00 L 346.50 489.00 L 346.67 492.25 C 346.77 494.04 346.88 502.59 346.92 511.25 L 347.00 527.00 L 350.44 527.00 C 352.33 527.00 354.16 526.55 354.50 526.00 M 457.00 508.09 L 457.00 489.00 L 435.00 489.00 L 413.00 489.00 L 413.00 507.33 C 413.00 517.42 413.19 525.85 413.43 526.08 C 413.66 526.31 423.56 526.65 435.43 526.84 L 457.00 527.18 L 457.00 508.09 M 547.53 517.50 C 556.42 506.95 569.00 490.64 569.00 489.67 C 569.00 489.30 559.55 489.00 548.00 489.00 L 527.00 489.00 L 527.00 507.75 L 527.01 526.50 L 533.48 526.50 L 539.95 526.50 L 547.53 517.50 M 579.96 516.25 C 579.93 507.55 579.68 506.19 577.60 503.65 L 575.27 500.80 L 570.40 507.15 C 567.72 510.64 563.15 516.31 560.24 519.75 L 554.95 526.00 L 567.47 526.00 L 580.00 526.00 L 579.96 516.25 M 640.77 507.25 L 641.05 489.00 L 620.27 488.99 C 608.85 488.98 598.57 488.72 597.44 488.42 C 595.59 487.92 595.05 488.92 592.14 498.20 C 587.96 511.55 587.86 511.71 584.45 510.16 C 582.09 509.09 581.84 509.13 582.38 510.55 C 582.72 511.44 583.00 515.28 583.00 519.10 L 583.00 526.03 L 611.75 525.77 L 640.50 525.50 L 640.77 507.25 M 688.77 507.25 L 689.05 489.00 L 666.02 489.00 L 643.00 489.00 L 643.00 506.83 C 643.00 516.64 643.31 524.98 643.69 525.35 C 644.06 525.73 654.30 525.92 666.44 525.77 L 688.50 525.50 L 688.77 507.25 M 746.00 507.00 L 746.00 489.00 L 719.00 489.00 L 692.00 489.00 L 692.00 507.00 L 692.00 525.00 L 719.00 525.00 L 746.00 525.00 L 746.00 507.00 M 584.01 488.25 C 584.02 487.29 587.78 477.16 592.37 465.75 L 600.72 445.00 L 563.86 445.00 L 527.00 445.00 L 527.00 465.50 L 527.00 486.00 L 548.64 486.00 L 570.27 486.00 L 572.59 483.50 C 573.86 482.12 575.39 481.00 575.98 481.00 C 576.57 481.00 578.27 483.02 579.77 485.50 C 582.64 490.26 583.99 491.13 584.01 488.25 M 620.58 486.00 L 641.00 486.00 L 641.00 468.03 C 641.00 452.48 640.80 450.14 639.50 450.64 C 638.59 450.99 636.94 450.00 635.28 448.11 C 632.58 445.03 632.45 445.00 622.87 445.00 L 613.19 445.00 L 607.18 459.25 C 596.81 483.82 596.17 485.47 596.69 486.31 C 596.97 486.77 597.87 486.88 598.68 486.57 C 599.50 486.26 609.35 486.00 620.58 486.00 M 283.00 465.50 L 283.00 445.00 L 258.75 444.99 C 245.41 444.98 232.81 444.70 230.75 444.36 L 227.00 443.74 L 227.00 464.87 L 227.00 486.00 L 255.00 486.00 L 283.00 486.00 L 283.00 465.50 M 344.00 465.50 L 344.00 445.00 L 315.00 445.00 L 286.00 445.00 L 286.00 465.50 L 286.00 486.00 L 315.00 486.00 L 344.00 486.00 L 344.00 465.50 M 411.00 465.50 L 411.00 445.00 L 379.06 445.00 C 361.49 445.00 346.98 445.34 346.81 445.75 C 346.64 446.16 346.63 455.39 346.79 466.25 L 347.08 486.00 L 379.04 486.00 L 411.00 486.00 L 411.00 465.50 M 457.00 465.50 L 457.00 445.00 L 435.00 445.00 L 413.00 445.00 L 413.00 465.50 L 413.00 486.00 L 435.00 486.00 L 457.00 486.00 L 457.00 465.50 M 523.77 465.25 C 523.62 453.84 523.16 444.61 522.75 444.75 C 522.34 444.89 508.05 445.00 491.00 445.00 L 460.00 445.00 L 460.00 465.50 L 460.00 486.00 L 492.02 486.00 L 524.04 486.00 L 523.77 465.25 M 689.00 472.66 C 689.00 465.32 689.29 453.17 689.66 445.66 L 690.31 432.00 L 673.66 432.00 C 663.22 432.00 657.00 431.63 657.00 431.00 C 657.00 429.98 662.07 429.89 717.25 430.00 L 746.00 430.06 L 746.00 408.07 L 746.00 386.09 L 728.87 385.80 L 711.74 385.50 L 703.62 396.92 C 699.15 403.21 695.02 408.50 694.44 408.69 C 693.85 408.89 690.38 406.18 686.73 402.68 L 680.07 396.32 L 672.17 406.91 C 667.83 412.73 661.93 420.88 659.07 425.00 C 656.21 429.12 651.43 435.83 648.44 439.90 L 643.00 447.30 L 643.00 466.65 L 643.00 486.00 L 666.00 486.00 L 689.00 486.00 L 689.00 472.66 M 746.00 459.00 L 746.00 432.00 L 719.61 432.00 C 696.46 432.00 693.14 432.19 692.61 433.58 C 692.27 434.45 692.00 446.60 692.00 460.58 L 692.00 486.00 L 719.00 486.00 L 746.00 486.00 L 746.00 459.00 M 283.00 415.47 L 283.00 389.00 L 255.00 389.00 L 227.00 389.00 L 227.00 415.75 L 227.00 442.50 L 255.00 442.22 L 283.00 441.94 L 283.00 415.47 M 629.36 440.67 C 627.82 437.96 621.54 430.00 620.93 430.00 C 620.38 430.00 615.00 440.98 615.00 442.13 C 615.00 442.33 618.38 442.35 622.51 442.17 C 627.88 441.93 629.83 441.51 629.36 440.67 M 344.00 415.50 L 344.00 389.00 L 315.00 389.00 L 286.00 389.00 L 286.00 415.50 L 286.00 442.00 L 315.00 442.00 L 344.00 442.00 L 344.00 415.50 M 411.00 415.50 L 411.00 389.00 L 379.08 389.00 C 358.85 389.00 347.04 389.36 346.83 389.99 C 346.65 390.54 346.63 402.46 346.78 416.49 L 347.07 442.00 L 379.03 442.00 L 411.00 442.00 L 411.00 415.50 M 457.00 415.48 L 457.00 388.96 L 435.25 389.23 L 413.50 389.50 L 413.18 399.50 C 413.00 405.00 413.16 416.81 413.53 425.75 L 414.21 442.00 L 435.61 442.00 L 457.00 442.00 L 457.00 415.48 M 524.00 415.50 L 524.00 389.00 L 492.00 389.00 L 460.00 389.00 L 460.00 415.50 L 460.00 442.00 L 492.00 442.00 L 524.00 442.00 L 524.00 415.50 M 608.53 428.71 C 612.07 421.40 615.89 414.42 617.03 413.20 C 619.61 410.43 621.49 411.26 626.11 417.23 C 627.92 419.58 631.62 424.10 634.32 427.28 L 639.24 433.05 L 643.44 427.28 C 650.22 417.96 666.59 394.74 668.48 391.75 L 670.23 389.00 L 642.62 389.00 L 615.00 389.00 L 614.98 400.75 C 614.97 414.57 613.58 418.75 612.52 408.18 C 612.13 404.29 611.96 398.50 612.15 395.30 L 612.50 389.50 L 569.75 389.24 L 527.00 388.98 L 527.00 415.49 L 527.00 442.00 L 564.54 442.00 L 602.09 442.00 L 608.53 428.71 M 702.25 378.62 C 707.06 371.32 715.77 358.63 721.61 350.42 C 733.89 333.14 734.84 331.44 733.14 329.74 C 732.20 328.80 731.27 329.25 728.92 331.77 L 725.90 335.00 L 703.45 335.00 L 681.00 335.00 L 681.00 357.10 L 681.00 379.19 L 686.62 385.60 C 689.71 389.12 692.53 391.98 692.87 391.95 C 693.22 391.92 697.44 385.92 702.25 378.62 M 677.25 380.14 C 678.80 378.23 679.00 375.46 679.00 356.49 L 679.00 335.00 L 647.00 335.00 L 615.00 335.00 L 615.00 360.98 L 615.00 386.97 L 642.75 387.23 L 670.50 387.50 L 673.00 384.90 C 674.38 383.47 676.29 381.33 677.25 380.14 M 258.75 386.01 L 283.00 386.00 L 283.00 360.50 L 283.00 335.00 L 255.00 335.00 L 227.00 335.00 L 227.00 361.13 L 227.00 387.26 L 230.75 386.64 C 232.81 386.30 245.41 386.02 258.75 386.01 M 343.77 360.73 L 344.03 335.00 L 315.02 335.00 L 286.00 335.00 L 286.00 360.46 L 286.00 385.92 L 295.25 386.21 C 300.34 386.37 313.27 386.49 324.00 386.48 L 343.50 386.46 L 343.77 360.73 M 409.75 386.22 C 410.71 386.05 411.00 380.11 411.00 360.50 L 411.00 335.00 L 379.00 335.00 L 347.00 335.00 L 347.00 360.75 L 347.01 386.50 L 377.75 386.47 C 394.66 386.46 409.06 386.35 409.75 386.22 M 457.00 360.80 L 457.00 335.00 L 435.01 335.00 L 413.02 335.00 L 413.08 360.20 C 413.11 374.06 413.36 385.77 413.63 386.21 C 413.91 386.66 423.78 386.93 435.57 386.81 L 457.00 386.59 L 457.00 360.80 M 524.00 360.75 L 524.00 335.00 L 492.00 335.00 L 460.00 335.00 L 460.00 360.75 L 460.00 386.50 L 492.00 386.50 L 524.00 386.50 L 524.00 360.75 M 612.25 385.75 C 612.11 385.34 612.00 373.75 612.00 360.00 L 612.00 335.00 L 569.50 335.00 L 527.00 335.00 L 527.00 360.48 L 527.00 385.97 L 551.75 386.26 C 591.33 386.74 612.52 386.56 612.25 385.75 M 758.94 320.50 C 760.04 313.35 761.58 304.21 762.37 300.18 C 763.48 294.48 763.52 292.97 762.55 293.34 C 761.86 293.61 756.62 296.84 750.90 300.54 C 745.18 304.23 739.45 307.91 738.17 308.70 C 736.08 310.00 735.99 310.34 737.30 311.83 C 738.10 312.75 739.11 314.62 739.52 316.00 C 739.94 317.38 743.71 322.79 747.89 328.03 C 756.77 339.15 756.00 339.68 758.94 320.50 M 524.35 331.82 C 524.43 331.64 524.37 311.81 524.21 287.75 L 523.92 244.00 L 491.96 244.00 L 460.00 244.00 L 460.00 287.92 C 460.00 316.36 460.35 331.95 461.00 332.17 C 462.27 332.59 524.15 332.25 524.35 331.82 M 283.00 288.00 L 283.00 244.00 L 255.00 244.00 L 227.00 244.00 L 227.00 288.00 L 227.00 332.00 L 255.00 332.00 L 283.00 332.00 L 283.00 288.00 M 344.00 288.10 L 344.00 244.20 L 339.42 243.84 C 336.90 243.64 323.85 243.64 310.42 243.85 L 286.00 244.23 L 286.00 288.11 L 286.00 332.00 L 315.00 332.00 L 344.00 332.00 L 344.00 288.10 M 411.00 288.00 L 411.00 244.00 L 379.00 244.00 L 347.00 244.00 L 347.00 288.00 L 347.00 332.00 L 379.00 332.00 L 411.00 332.00 L 411.00 288.00 M 457.00 288.00 L 457.00 244.00 L 435.50 244.00 L 414.00 244.00 L 414.00 286.42 C 414.00 309.75 413.73 329.55 413.39 330.42 C 412.85 331.83 415.15 332.00 434.89 332.00 L 457.00 332.00 L 457.00 288.00 M 612.77 287.75 L 613.04 244.00 L 570.02 244.00 L 527.00 244.00 L 527.00 288.01 L 527.00 332.02 L 569.75 331.76 L 612.50 331.50 L 612.77 287.75 M 679.00 288.07 C 679.00 247.90 678.86 244.12 677.34 243.82 C 676.42 243.65 662.02 243.63 645.34 243.78 L 615.00 244.06 L 615.00 288.03 L 615.00 332.00 L 647.00 332.00 L 679.00 332.00 L 679.00 288.07 M 718.49 329.99 C 716.14 327.39 717.45 324.72 723.64 319.54 L 728.09 315.83 L 725.48 311.38 C 721.51 304.60 722.12 303.49 733.50 296.77 C 739.00 293.52 744.17 290.20 745.00 289.39 C 746.24 288.18 746.50 284.18 746.50 266.10 L 746.50 244.27 L 715.00 243.76 C 697.67 243.48 683.22 243.54 682.88 243.88 C 682.54 244.22 681.98 264.19 681.64 288.25 L 681.03 332.00 L 700.67 332.00 C 720.28 332.00 720.31 332.00 718.49 329.99 M 275.48 660.03 C 275.83 659.47 277.29 659.00 278.73 659.00 C 281.91 659.00 281.23 659.91 277.54 660.58 C 275.83 660.89 275.07 660.69 275.48 660.03 Z" stroke-linecap="round"/>
</g>
</g>
</g>

  </svg>